<?xml version="1.0"?>
<svg xmlns="http://www.w3.org/2000/svg" id="_x31__x2C_5" enable-background="new 0 0 24 24" height="512px" viewBox="0 0 24 24" width="512px" class="hovered-paths"><g><path d="m18.19 5.64c-1.08-2.3-3.45-3.89-6.19-3.89-3.45 0-6.3 2.51-6.77 5.8h-.08c-2.43 0-4.4 1.94-4.4 4.35s1.97 4.35 4.4 4.35h12.72c2.97 0 5.38-2.38 5.38-5.32 0-2.83-2.23-5.14-5.06-5.29z" fill="#eceff1" data-original="#ECEFF1" class="" style="fill:#ECEFF1"/><path d="m17.869 17h-1.135c-.414 0-.75-.336-.75-.75s.336-.75.75-.75h1.135c2.554 0 4.631-2.049 4.631-4.567 0-2.417-1.91-4.415-4.349-4.548-.275-.015-.52-.18-.638-.429-.99-2.099-3.155-3.456-5.513-3.456-3.016 0-5.607 2.217-6.027 5.156-.053.369-.369.644-.743.644-2.092 0-3.73 1.615-3.73 3.6s1.639 3.6 3.652 3.6h2.098c.414 0 .75.336.75.75s-.336.75-.75.75h-2.098c-2.84 0-5.152-2.288-5.152-5.1 0-2.628 2.02-4.799 4.603-5.071.778-3.364 3.852-5.829 7.397-5.829 2.788 0 5.36 1.528 6.673 3.927 3.02.381 5.327 2.94 5.327 6.006 0 3.345-2.75 6.067-6.131 6.067z" data-original="#000000" class="active-path" style="fill:#273457" data-old_color="#000000"/><path d="m12 20c-.414 0-.75-.336-.75-.75v-7.001c0-.414.336-.75.75-.75s.75.336.75.75v7.001c0 .414-.336.75-.75.75z" data-original="#000000" class="active-path" style="fill:#273457" data-old_color="#000000"/><path d="m14.25 14.75c-.192 0-.384-.073-.53-.22l-1.72-1.719-1.72 1.72c-.293.293-.768.293-1.061 0s-.293-.768 0-1.061l2.25-2.25c.293-.293.768-.293 1.061 0l2.25 2.25c.293.293.293.768 0 1.061-.146.146-.338.219-.53.219z" data-original="#000000" class="active-path" style="fill:#273457" data-old_color="#000000"/><path d="m15.25 23h-6.5c-.965 0-1.75-.785-1.75-1.75v-1.5c0-.414.336-.75.75-.75s.75.336.75.75v1.5c0 .138.112.25.25.25h6.5c.138 0 .25-.112.25-.25v-1.5c0-.414.336-.75.75-.75s.75.336.75.75v1.5c0 .965-.785 1.75-1.75 1.75z" data-original="#000000" class="active-path" style="fill:#273457" data-old_color="#000000"/></g> </svg>
